<svg xmlns="http://www.w3.org/2000/svg" width="900" height="120" viewBox="0 0 900 120" font-family="ui-sans-serif,Segoe UI,Arial">
<rect width="900" height="120" rx="10" fill="#1a1b26"/>
<text x="20" y="20" fill="#c0caf5" font-size="12" font-weight="700">▶ Publish project</text>
<rect x="20.0" y="45" width="2.2" height="12" fill="#c0caf5"/>
<rect x="24.6" y="70" width="2.2" height="12" fill="#bb9af7"/>
<rect x="29.1" y="85" width="2.2" height="12" fill="#9ece6a"/>
<rect x="33.7" y="45" width="2.2" height="12" fill="#c0caf5"/>
<rect x="38.2" y="70" width="2.2" height="12" fill="#bb9af7"/>
<rect x="42.8" y="85" width="2.2" height="12" fill="#9ece6a"/>
<rect x="47.3" y="45" width="2.2" height="12" fill="#c0caf5"/>
<rect x="51.9" y="70" width="2.2" height="12" fill="#9ece6a"/>
<rect x="56.4" y="85" width="2.2" height="12" fill="#9ece6a"/>
<rect x="61.0" y="70" width="2.2" height="12" fill="#9ece6a"/>
<rect x="65.5" y="85" width="2.2" height="12" fill="#9ece6a"/>
<rect x="70.1" y="70" width="2.2" height="12" fill="#9ece6a"/>
<rect x="74.6" y="85" width="2.2" height="12" fill="#9ece6a"/>
<rect x="79.2" y="45" width="2.2" height="12" fill="#c0caf5"/>
<rect x="83.7" y="70" width="2.2" height="12" fill="#9ece6a"/>
<rect x="88.3" y="85" width="2.2" height="12" fill="#9ece6a"/>
<rect x="92.8" y="45" width="2.2" height="12" fill="#c0caf5"/>
<rect x="97.4" y="70" width="2.2" height="12" fill="#9ece6a"/>
<rect x="101.9" y="85" width="2.2" height="12" fill="#9ece6a"/>
<rect x="106.5" y="45" width="2.2" height="12" fill="#c0caf5"/>
<rect x="111.0" y="70" width="2.2" height="12" fill="#e0af68"/>
<rect x="115.6" y="85" width="2.2" height="12" fill="#9ece6a"/>
<rect x="120.1" y="45" width="2.2" height="12" fill="#c0caf5"/>
<rect x="124.7" y="70" width="2.2" height="12" fill="#9ece6a"/>
<rect x="129.2" y="85" width="2.2" height="12" fill="#9ece6a"/>
<rect x="133.8" y="45" width="2.2" height="12" fill="#c0caf5"/>
<rect x="138.3" y="70" width="2.2" height="12" fill="#9ece6a"/>
<rect x="142.9" y="85" width="2.2" height="12" fill="#9ece6a"/>
<rect x="147.4" y="70" width="2.2" height="12" fill="#9ece6a"/>
<rect x="152.0" y="85" width="2.2" height="12" fill="#9ece6a"/>
<rect x="156.5" y="70" width="2.2" height="12" fill="#9ece6a"/>
<rect x="161.1" y="85" width="2.2" height="12" fill="#9ece6a"/>
<rect x="165.6" y="45" width="2.2" height="12" fill="#c0caf5"/>
<rect x="170.2" y="70" width="2.2" height="12" fill="#9ece6a"/>
<rect x="174.7" y="85" width="2.2" height="12" fill="#9ece6a"/>
<rect x="179.3" y="70" width="2.2" height="12" fill="#9ece6a"/>
<rect x="183.8" y="85" width="2.2" height="12" fill="#9ece6a"/>
<rect x="188.4" y="70" width="2.2" height="12" fill="#9ece6a"/>
<rect x="192.9" y="85" width="2.2" height="12" fill="#9ece6a"/>
<rect x="197.5" y="45" width="2.2" height="12" fill="#c0caf5"/>
<rect x="202.0" y="70" width="2.2" height="12" fill="#9ece6a"/>
<rect x="206.6" y="85" width="2.2" height="12" fill="#9ece6a"/>
<rect x="211.1" y="70" width="2.2" height="12" fill="#9ece6a"/>
<rect x="215.7" y="85" width="2.2" height="12" fill="#9ece6a"/>
<rect x="220.2" y="70" width="2.2" height="12" fill="#9ece6a"/>
<rect x="224.8" y="85" width="2.2" height="12" fill="#9ece6a"/>
<rect x="229.3" y="70" width="2.2" height="12" fill="#9ece6a"/>
<rect x="233.9" y="85" width="2.2" height="12" fill="#9ece6a"/>
<rect x="238.4" y="70" width="2.2" height="12" fill="#9ece6a"/>
<rect x="243.0" y="85" width="2.2" height="12" fill="#9ece6a"/>
<rect x="247.5" y="70" width="2.2" height="12" fill="#9ece6a"/>
<rect x="252.1" y="85" width="2.2" height="12" fill="#9ece6a"/>
<rect x="256.6" y="45" width="2.2" height="12" fill="#c0caf5"/>
<rect x="261.2" y="70" width="2.2" height="12" fill="#9ece6a"/>
<rect x="265.7" y="85" width="2.2" height="12" fill="#9ece6a"/>
<rect x="270.3" y="70" width="2.2" height="12" fill="#9ece6a"/>
<rect x="274.8" y="85" width="2.2" height="12" fill="#9ece6a"/>
<rect x="279.4" y="45" width="2.2" height="12" fill="#c0caf5"/>
<rect x="283.9" y="70" width="2.2" height="12" fill="#9ece6a"/>
<rect x="288.5" y="85" width="2.2" height="12" fill="#9ece6a"/>
<rect x="293.0" y="45" width="2.2" height="12" fill="#c0caf5"/>
<rect x="297.6" y="70" width="2.2" height="12" fill="#9ece6a"/>
<rect x="302.1" y="85" width="2.2" height="12" fill="#9ece6a"/>
<rect x="306.7" y="70" width="2.2" height="12" fill="#9ece6a"/>
<rect x="311.2" y="85" width="2.2" height="12" fill="#9ece6a"/>
<rect x="315.8" y="45" width="2.2" height="12" fill="#c0caf5"/>
<rect x="320.3" y="70" width="2.2" height="12" fill="#bb9af7"/>
<rect x="324.9" y="85" width="2.2" height="12" fill="#9ece6a"/>
<rect x="329.4" y="45" width="2.2" height="12" fill="#c0caf5"/>
<rect x="334.0" y="70" width="2.2" height="12" fill="#e0af68"/>
<rect x="338.5" y="85" width="2.2" height="12" fill="#9ece6a"/>
<rect x="343.1" y="45" width="2.2" height="12" fill="#c0caf5"/>
<rect x="347.6" y="70" width="2.2" height="12" fill="#bb9af7"/>
<rect x="352.2" y="85" width="2.2" height="12" fill="#9ece6a"/>
<rect x="356.7" y="45" width="2.2" height="12" fill="#c0caf5"/>
<rect x="361.3" y="70" width="2.2" height="12" fill="#bb9af7"/>
<rect x="365.8" y="85" width="2.2" height="12" fill="#9ece6a"/>
<rect x="370.4" y="45" width="2.2" height="12" fill="#c0caf5"/>
<rect x="374.9" y="70" width="2.2" height="12" fill="#9ece6a"/>
<rect x="379.5" y="85" width="2.2" height="12" fill="#9ece6a"/>
<rect x="384.0" y="70" width="2.2" height="12" fill="#bb9af7"/>
<rect x="388.6" y="85" width="2.2" height="12" fill="#f7768e"/>
<rect x="393.1" y="45" width="2.2" height="12" fill="#c0caf5"/>
<rect x="397.7" y="70" width="2.2" height="12" fill="#bb9af7"/>
<rect x="402.2" y="85" width="2.2" height="12" fill="#f7768e"/>
<rect x="406.8" y="70" width="2.2" height="12" fill="#bb9af7"/>
<rect x="411.3" y="85" width="2.2" height="12" fill="#9ece6a"/>
<rect x="415.9" y="45" width="2.2" height="12" fill="#c0caf5"/>
<rect x="420.4" y="70" width="2.2" height="12" fill="#bb9af7"/>
<rect x="425.0" y="85" width="2.2" height="12" fill="#9ece6a"/>
<rect x="429.5" y="45" width="2.2" height="12" fill="#c0caf5"/>
<rect x="434.1" y="70" width="2.2" height="12" fill="#bb9af7"/>
<rect x="438.6" y="85" width="2.2" height="12" fill="#9ece6a"/>
<rect x="443.2" y="45" width="2.2" height="12" fill="#c0caf5"/>
<rect x="447.7" y="70" width="2.2" height="12" fill="#9ece6a"/>
<rect x="452.3" y="85" width="2.2" height="12" fill="#9ece6a"/>
<rect x="456.8" y="70" width="2.2" height="12" fill="#9ece6a"/>
<rect x="461.4" y="85" width="2.2" height="12" fill="#9ece6a"/>
<rect x="465.9" y="45" width="2.2" height="12" fill="#c0caf5"/>
<rect x="470.5" y="70" width="2.2" height="12" fill="#9ece6a"/>
<rect x="475.0" y="85" width="2.2" height="12" fill="#9ece6a"/>
<rect x="479.6" y="45" width="2.2" height="12" fill="#c0caf5"/>
<rect x="484.1" y="70" width="2.2" height="12" fill="#9ece6a"/>
<rect x="488.7" y="85" width="2.2" height="12" fill="#9ece6a"/>
<rect x="493.2" y="70" width="2.2" height="12" fill="#9ece6a"/>
<rect x="497.8" y="85" width="2.2" height="12" fill="#9ece6a"/>
<rect x="502.3" y="70" width="2.2" height="12" fill="#9ece6a"/>
<rect x="506.9" y="85" width="2.2" height="12" fill="#9ece6a"/>
<rect x="511.4" y="70" width="2.2" height="12" fill="#9ece6a"/>
<rect x="516.0" y="85" width="2.2" height="12" fill="#9ece6a"/>
<rect x="520.5" y="70" width="2.2" height="12" fill="#9ece6a"/>
<rect x="525.1" y="85" width="2.2" height="12" fill="#9ece6a"/>
<rect x="529.6" y="45" width="2.2" height="12" fill="#c0caf5"/>
<rect x="534.2" y="70" width="2.2" height="12" fill="#bb9af7"/>
<rect x="538.7" y="85" width="2.2" height="12" fill="#9ece6a"/>
<rect x="543.3" y="45" width="2.2" height="12" fill="#c0caf5"/>
<rect x="547.8" y="70" width="2.2" height="12" fill="#e0af68"/>
<rect x="552.4" y="85" width="2.2" height="12" fill="#9ece6a"/>
<rect x="556.9" y="70" width="2.2" height="12" fill="#bb9af7"/>
<rect x="561.5" y="85" width="2.2" height="12" fill="#9ece6a"/>
<rect x="566.0" y="45" width="2.2" height="12" fill="#c0caf5"/>
<rect x="570.6" y="70" width="2.2" height="12" fill="#bb9af7"/>
<rect x="575.1" y="85" width="2.2" height="12" fill="#9ece6a"/>
<rect x="579.7" y="45" width="2.2" height="12" fill="#c0caf5"/>
<rect x="584.2" y="70" width="2.2" height="12" fill="#bb9af7"/>
<rect x="588.8" y="85" width="2.2" height="12" fill="#9ece6a"/>
<rect x="593.3" y="45" width="2.2" height="12" fill="#c0caf5"/>
<rect x="597.9" y="70" width="2.2" height="12" fill="#e0af68"/>
<rect x="602.4" y="85" width="2.2" height="12" fill="#9ece6a"/>
<rect x="607.0" y="45" width="2.2" height="12" fill="#c0caf5"/>
<rect x="611.5" y="70" width="2.2" height="12" fill="#bb9af7"/>
<rect x="616.1" y="85" width="2.2" height="12" fill="#9ece6a"/>
<rect x="620.6" y="70" width="2.2" height="12" fill="#9ece6a"/>
<rect x="625.2" y="85" width="2.2" height="12" fill="#9ece6a"/>
<rect x="629.7" y="70" width="2.2" height="12" fill="#e0af68"/>
<rect x="634.3" y="85" width="2.2" height="12" fill="#f7768e"/>
<rect x="638.8" y="70" width="2.2" height="12" fill="#7aa2f7"/>
<rect x="643.4" y="85" width="2.2" height="12" fill="#9ece6a"/>
<rect x="647.9" y="70" width="2.2" height="12" fill="#7aa2f7"/>
<rect x="652.5" y="85" width="2.2" height="12" fill="#9ece6a"/>
<rect x="657.0" y="70" width="2.2" height="12" fill="#7aa2f7"/>
<rect x="661.6" y="85" width="2.2" height="12" fill="#9ece6a"/>
<rect x="666.1" y="45" width="2.2" height="12" fill="#c0caf5"/>
<rect x="670.7" y="70" width="2.2" height="12" fill="#e0af68"/>
<rect x="675.2" y="85" width="2.2" height="12" fill="#9ece6a"/>
<rect x="679.8" y="45" width="2.2" height="12" fill="#c0caf5"/>
<rect x="684.3" y="30" width="2.2" height="12" fill="#e0af68"/>
<rect x="688.9" y="45" width="2.2" height="12" fill="#c0caf5"/>
<rect x="693.4" y="70" width="2.2" height="12" fill="#bb9af7"/>
<rect x="698.0" y="85" width="2.2" height="12" fill="#f7768e"/>
<rect x="702.5" y="45" width="2.2" height="12" fill="#c0caf5"/>
<rect x="707.1" y="70" width="2.2" height="12" fill="#bb9af7"/>
<rect x="711.6" y="85" width="2.2" height="12" fill="#9ece6a"/>
<rect x="716.2" y="45" width="2.2" height="12" fill="#c0caf5"/>
<rect x="720.7" y="70" width="2.2" height="12" fill="#9ece6a"/>
<rect x="725.3" y="85" width="2.2" height="12" fill="#9ece6a"/>
<rect x="729.8" y="70" width="2.2" height="12" fill="#bb9af7"/>
<rect x="734.4" y="85" width="2.2" height="12" fill="#9ece6a"/>
<rect x="738.9" y="45" width="2.2" height="12" fill="#c0caf5"/>
<rect x="743.5" y="70" width="2.2" height="12" fill="#bb9af7"/>
<rect x="748.0" y="85" width="2.2" height="12" fill="#9ece6a"/>
<rect x="752.6" y="45" width="2.2" height="12" fill="#c0caf5"/>
<rect x="757.1" y="70" width="2.2" height="12" fill="#bb9af7"/>
<rect x="761.7" y="85" width="2.2" height="12" fill="#9ece6a"/>
<rect x="766.2" y="45" width="2.2" height="12" fill="#c0caf5"/>
<rect x="770.8" y="70" width="2.2" height="12" fill="#bb9af7"/>
<rect x="775.3" y="85" width="2.2" height="12" fill="#9ece6a"/>
<rect x="779.9" y="45" width="2.2" height="12" fill="#c0caf5"/>
<rect x="784.4" y="70" width="2.2" height="12" fill="#bb9af7"/>
<rect x="789.0" y="85" width="2.2" height="12" fill="#f7768e"/>
<rect x="793.5" y="45" width="2.2" height="12" fill="#c0caf5"/>
<rect x="798.1" y="70" width="2.2" height="12" fill="#e0af68"/>
<rect x="802.6" y="85" width="2.2" height="12" fill="#9ece6a"/>
<rect x="807.2" y="45" width="2.2" height="12" fill="#c0caf5"/>
<rect x="811.7" y="70" width="2.2" height="12" fill="#7dcfff"/>
<rect x="816.3" y="85" width="2.2" height="12" fill="#9ece6a"/>
<rect x="820.8" y="70" width="2.2" height="12" fill="#e0af68"/>
<rect x="825.4" y="85" width="2.2" height="12" fill="#9ece6a"/>
<rect x="829.9" y="45" width="2.2" height="12" fill="#c0caf5"/>
<rect x="834.5" y="70" width="2.2" height="12" fill="#bb9af7"/>
<rect x="839.0" y="85" width="2.2" height="12" fill="#9ece6a"/>
<rect x="843.6" y="70" width="2.2" height="12" fill="#bb9af7"/>
<rect x="848.1" y="85" width="2.2" height="12" fill="#9ece6a"/>
<rect x="852.7" y="45" width="2.2" height="12" fill="#c0caf5"/>
<rect x="857.2" y="70" width="2.2" height="12" fill="#e0af68"/>
<rect x="861.8" y="85" width="2.2" height="12" fill="#9ece6a"/>
<rect x="866.3" y="70" width="2.2" height="12" fill="#e0af68"/>
<rect x="870.9" y="85" width="2.2" height="12" fill="#9ece6a"/>
<rect x="875.4" y="45" width="2.2" height="12" fill="#c0caf5"/>
<circle cx="643.4" cy="105" r="3.2" fill="#bb9af7"/>
<circle cx="684.3" cy="105" r="3.2" fill="#bb9af7"/>
<circle cx="83.7" cy="105" r="3.2" fill="#bb9af7"/>
<circle cx="124.7" cy="105" r="3.2" fill="#bb9af7"/>
<circle cx="156.5" cy="105" r="3.2" fill="#bb9af7"/>
<circle cx="297.6" cy="105" r="3.2" fill="#bb9af7"/>
<circle cx="470.5" cy="105" r="3.2" fill="#bb9af7"/>
<circle cx="388.6" cy="105" r="3.2" fill="#bb9af7"/>
<text x="20" y="115" fill="#565f89" font-size="10">189 events · prompts/text/tools/results · ◆ key moments</text>
</svg>